<?xml version="1.0" standalone="no"?>
<!DOCTYPE svg PUBLIC "-//W3C//DTD SVG 20010904//EN"
 "http://www.w3.org/TR/2001/REC-SVG-20010904/DTD/svg10.dtd">
<svg version="1.0" xmlns="http://www.w3.org/2000/svg"
 width="512.000000pt" height="512.000000pt" viewBox="0 0 512.000000 512.000000"
 preserveAspectRatio="xMidYMid meet">

<g transform="translate(0.000000,512.000000) scale(0.100000,-0.100000)"
fill="#000000" stroke="none">
<path d="M2454 5102 c-73 -26 -81 -32 -292 -227 l-190 -175 -544 0 -543 0 -50
-24 c-58 -27 -99 -65 -129 -121 -20 -39 -21 -52 -26 -546 l-5 -506 -155 -143
c-166 -152 -207 -201 -242 -289 l-23 -56 -3 -1275 c-2 -918 0 -1294 9 -1343
30 -183 171 -334 356 -382 86 -23 3800 -23 3886 0 185 48 326 199 356 382 9
49 11 425 9 1343 l-3 1275 -23 56 c-35 88 -76 136 -242 290 l-155 143 -5 506
c-5 494 -5 506 -27 546 -27 50 -75 97 -122 121 -33 17 -80 18 -589 21 l-554 2
-196 182 c-223 205 -261 229 -376 235 -51 3 -85 -2 -122 -15z m203 -186 c21
-15 83 -69 138 -121 l100 -95 -335 0 -335 0 30 29 c127 120 213 195 239 207
46 21 118 12 163 -20z m1584 -415 l29 -29 0 -834 0 -833 -830 -645 c-456 -355
-841 -649 -855 -654 -16 -6 -34 -6 -50 0 -14 5 -399 299 -855 654 l-830 645 0
833 0 834 29 29 29 29 1652 0 1652 0 29 -29z m-3561 -1397 l0 -165 -92 71
c-51 39 -94 75 -96 80 -2 6 176 180 185 180 2 0 3 -75 3 -166z m3905 37 c29
-31 45 -54 40 -59 -6 -5 -49 -39 -97 -76 l-88 -68 0 167 0 167 48 -40 c26 -22
69 -63 97 -91z m-3332 -865 c417 -324 756 -593 755 -598 -2 -4 -347 -312 -768
-683 -603 -532 -767 -672 -777 -662 -7 6 -19 39 -28 72 -13 52 -15 212 -15
1288 l0 1229 38 -29 c21 -15 379 -293 795 -617z m3445 -821 c-3 -982 -4 -1043
-21 -1087 -11 -27 -22 -48 -25 -48 -12 0 -1537 1350 -1537 1361 0 5 356 287
790 625 l790 614 3 -213 c1 -116 1 -680 0 -1252z m-2397 6 c144 -112 183 -131
262 -131 71 0 118 24 264 137 74 56 136 103 139 103 9 0 1545 -1359 1545
-1367 2 -30 -89 -31 -1951 -31 -1860 0 -1953 1 -1951 31 1 9 1533 1365 1544
1366 4 1 71 -48 148 -108z"/>
<path d="M2433 4179 c-475 -61 -848 -445 -892 -917 -49 -527 299 -996 819
-1104 136 -29 347 -21 474 16 151 45 343 147 360 191 22 58 -16 125 -71 125
-15 0 -63 -22 -109 -50 -503 -308 -1149 -43 -1285 528 -18 73 -20 109 -16 222
5 162 20 222 87 355 263 524 957 632 1370 213 106 -108 186 -253 220 -402 18
-78 21 -116 18 -262 -3 -168 -3 -171 -30 -206 -77 -101 -236 -81 -289 36 -17
37 -19 70 -19 367 0 315 -1 327 -21 353 -21 26 -65 35 -104 20 -20 -8 -45 -56
-45 -88 l0 -26 -62 40 c-152 99 -354 108 -518 25 -108 -55 -213 -182 -250
-303 -22 -71 -26 -197 -9 -272 18 -79 71 -172 134 -235 192 -194 482 -207 698
-31 l54 43 46 -53 c29 -32 69 -63 104 -81 51 -24 70 -28 148 -28 80 0 97 3
148 29 64 33 125 93 157 156 52 102 50 418 -5 604 -142 485 -618 800 -1112
735z m254 -701 c69 -25 147 -99 183 -173 20 -41 24 -65 25 -140 0 -76 -4 -98
-26 -145 -33 -70 -99 -136 -169 -169 -79 -37 -201 -37 -280 0 -72 34 -135 97
-168 167 -23 49 -27 70 -27 147 1 74 5 99 25 140 33 69 117 148 182 174 74 28
179 28 255 -1z"/>
</g>
</svg>
