<?xml version="1.0" standalone="no"?>
<!DOCTYPE svg PUBLIC "-//W3C//DTD SVG 20010904//EN"
 "http://www.w3.org/TR/2001/REC-SVG-20010904/DTD/svg10.dtd">
<svg version="1.0" xmlns="http://www.w3.org/2000/svg"
 width="20pt" height="20pt" viewBox="0 0 512.000000 512.000000"
 preserveAspectRatio="xMidYMid meet">

<g transform="translate(0.000000,512.000000) scale(0.100000,-0.100000)"
fill="#000000" stroke="none">
<path d="M3227 4943 c-62 -21 -126 -78 -157 -139 -26 -52 -33 -146 -17 -211
l9 -33 -1427 0 -1426 0 -24 -25 -25 -24 0 -271 0 -271 25 -24 24 -25 1419 0
c1286 0 1420 -1 1426 -16 3 -9 6 -25 6 -37 0 -12 12 -47 26 -77 20 -45 77
-107 300 -331 l276 -276 -25 -49 c-38 -76 -83 -211 -108 -325 -18 -83 -23
-137 -23 -264 -1 -88 3 -191 7 -230 l8 -70 -26 35 c-37 49 -91 164 -110 235
-9 33 -19 118 -22 188 -5 102 -10 133 -24 150 -17 22 -23 22 -363 27 l-346 5
-32 33 c-28 28 -33 39 -33 82 0 43 5 54 33 82 l32 33 365 3 365 3 0 79 0 79
-365 3 -365 3 -32 33 c-28 28 -33 39 -33 82 0 43 5 54 33 82 l32 33 205 3 205
3 0 79 0 79 -204 3 -205 3 -30 29 c-16 16 -33 42 -36 57 -7 29 -7 29 -86 29
-70 0 -79 -2 -79 -18 0 -36 29 -113 54 -147 l26 -34 -30 -43 c-63 -90 -63
-226 0 -316 l30 -43 -26 -34 c-30 -40 -54 -113 -54 -165 0 -74 28 -140 84
-196 80 -80 103 -84 436 -84 l277 0 7 -79 c13 -162 76 -334 170 -466 43 -60
152 -169 201 -201 l25 -16 0 -235 0 -234 25 -24 c19 -20 34 -25 75 -25 l51 0
-6 -33 c-9 -56 -145 -1155 -145 -1177 0 -11 11 -32 25 -45 l24 -25 631 0 631
0 24 25 25 24 0 376 0 375 -80 0 -80 0 0 -320 0 -320 -515 0 -516 0 6 33 c5
31 135 1070 135 1081 0 3 200 6 445 6 l445 0 0 -160 0 -160 80 0 80 0 -2 1588
-3 1587 -24 47 c-13 26 -40 66 -60 87 -72 79 -533 472 -584 499 l-52 27 -480
2 c-419 2 -486 0 -528 -14z m985 -156 c15 -7 147 -117 294 -245 184 -162 270
-244 280 -268 12 -28 14 -218 14 -1194 l0 -1160 -440 0 -440 0 0 -80 0 -80
440 0 440 0 0 -80 0 -80 -520 0 -520 0 0 206 c0 202 -1 208 -29 293 -53 153
-66 239 -66 421 0 232 34 380 130 572 25 49 45 101 45 115 0 22 -58 86 -304
332 -328 330 -336 340 -315 417 14 49 57 93 102 103 85 20 79 24 521 -418 226
-226 416 -411 421 -411 10 0 86 75 100 99 5 9 -77 98 -281 302 l-289 289 60 0
c95 -1 133 -24 291 -181 96 -95 148 -139 163 -139 30 0 77 25 85 45 3 9 6 135
6 280 0 236 -2 265 -17 283 -10 11 -110 93 -223 183 l-205 164 -342 5 -343 5
-32 33 c-28 28 -33 39 -33 81 0 52 26 93 70 111 34 14 905 11 937 -3z m-3732
-547 l0 -160 -80 0 -80 0 0 160 0 160 80 0 80 0 0 -160z m480 0 l0 -160 -160
0 -160 0 0 160 0 160 160 0 160 0 0 -160z m320 0 l0 -160 -80 0 -80 0 0 160 0
160 80 0 80 0 0 -160z m480 0 l0 -160 -160 0 -160 0 0 160 0 160 160 0 160 0
0 -160z m320 0 l0 -160 -80 0 -80 0 0 160 0 160 80 0 80 0 0 -160z m480 0 l0
-160 -160 0 -160 0 0 160 0 160 160 0 160 0 0 -160z m1280 0 l0 -160 -101 0
-102 0 -49 46 c-110 103 -239 126 -363 65 -40 -20 -77 -48 -97 -72 l-31 -39
-189 0 -188 0 0 160 0 160 560 0 560 0 0 -160z m298 -35 l101 -80 1 -124 0
-123 -70 66 c-39 36 -93 77 -120 91 l-50 25 0 126 c0 119 1 125 18 112 10 -7
64 -49 120 -93z"/>
<path d="M185 3095 l-25 -24 0 -311 0 -311 25 -24 24 -25 1016 0 1015 0 0
-160 0 -160 -495 0 -496 0 -24 -25 c-24 -23 -25 -29 -25 -160 l0 -135 -200 0
-200 0 0 80 0 80 -80 0 -80 0 0 -80 0 -80 -80 0 -80 0 0 240 0 240 -80 0 -80
0 0 -936 c0 -706 3 -947 12 -978 16 -55 99 -138 154 -154 31 -9 250 -12 876
-12 948 0 895 -4 971 80 24 26 49 66 55 88 9 29 12 299 12 1056 l0 1016 55 0
c46 0 60 4 80 25 23 22 25 32 25 120 l0 95 -80 0 -80 0 0 -40 0 -40 -80 0 -80
0 0 120 0 120 -80 0 -80 0 0 -120 0 -120 -80 0 -80 0 0 120 0 120 -80 0 -80 0
0 -120 0 -120 -80 0 -80 0 0 120 0 120 -80 0 -80 0 0 -120 0 -120 -80 0 -80 0
0 120 0 120 -80 0 -80 0 0 -120 0 -120 -80 0 -80 0 0 120 0 120 -80 0 -80 0 0
-120 0 -120 -80 0 -80 0 0 120 0 120 -80 0 -80 0 0 -120 0 -120 -80 0 -80 0 0
200 0 200 960 0 960 0 0 80 0 80 -1015 0 -1016 0 -24 -25z m2055 -1255 l0 -80
-200 0 -200 0 0 -80 0 -80 200 0 200 0 0 -80 0 -80 -360 0 -360 0 0 -80 0 -80
360 0 360 0 0 -80 0 -80 -440 0 -440 0 0 400 0 400 440 0 440 0 0 -80z m-1600
-400 l0 -160 80 0 80 0 0 160 0 160 200 0 200 0 0 -295 0 -296 25 -24 24 -25
496 0 495 0 0 -295 0 -296 -25 -24 -24 -25 -831 0 -831 0 -24 25 -25 24 0 616
0 615 80 0 80 0 0 -160z"/>
<path d="M1520 1680 l0 -80 80 0 80 0 0 80 0 80 -80 0 -80 0 0 -80z"/>
<path d="M640 2160 l0 -80 80 0 80 0 0 80 0 80 -80 0 -80 0 0 -80z"/>
</g>
</svg>
