<?xml version="1.0" standalone="no"?>
<!DOCTYPE svg PUBLIC "-//W3C//DTD SVG 20010904//EN"
 "http://www.w3.org/TR/2001/REC-SVG-20010904/DTD/svg10.dtd">
<svg version="1.0" xmlns="http://www.w3.org/2000/svg"
 width="512.000000pt" height="512.000000pt" viewBox="0 0 512.000000 512.000000"
 preserveAspectRatio="xMidYMid meet">

<g transform="translate(0.000000,512.000000) scale(0.100000,-0.100000)"
fill="#000000" stroke="none">
<path d="M320 5106 c-147 -41 -267 -162 -306 -310 -20 -76 -20 -4396 0 -4472
41 -155 171 -280 324 -313 75 -16 4368 -16 4444 0 157 33 293 170 327 327 16
75 16 4369 0 4444 -33 153 -158 283 -313 324 -72 19 -4406 19 -4476 0z m360
-1906 l0 -1750 -255 0 -255 0 2 1658 c3 1594 4 1658 22 1692 36 68 97 120 166
141 14 4 91 8 173 8 l147 1 0 -1750z m340 1273 c1 -502 3 -526 47 -575 10 -11
35 -29 55 -39 35 -18 69 -19 666 -19 l628 0 -12 -82 c-7 -46 -13 -84 -13 -85
-1 -2 -277 -3 -613 -3 -575 0 -616 -2 -654 -19 -48 -22 -80 -60 -94 -112 -7
-25 -9 -395 -8 -1086 3 -1172 -3 -1081 75 -1140 l36 -28 1909 -3 1908 -2 0
-85 0 -85 -954 0 c-649 0 -964 -3 -983 -11 -42 -15 -92 -68 -103 -109 -6 -20
-10 -201 -10 -427 l0 -393 -85 0 -85 0 0 399 c0 258 -4 410 -11 428 -14 38
-57 83 -96 99 -27 12 -237 14 -1243 14 l-1210 0 0 85 0 85 273 0 c305 0 331 5
378 71 l24 34 3 1783 2 1782 85 0 85 0 0 -477z m3785 450 c47 -25 95 -74 121
-123 17 -32 19 -67 22 -412 l3 -378 -125 0 -125 0 -39 83 c-282 603 -1010 857
-1605 560 -122 -60 -197 -113 -295 -207 -111 -107 -171 -188 -239 -324 l-57
-112 -635 2 -636 3 -3 455 c-1 250 0 461 3 468 3 10 360 12 1787 10 l1783 -3
40 -22z m-972 -347 c184 -47 337 -134 473 -270 135 -135 221 -287 271 -474 22
-84 26 -118 26 -252 0 -100 -5 -189 -16 -250 -76 -441 -314 -859 -717 -1260
-133 -133 -268 -250 -287 -250 -6 0 -59 42 -119 93 -590 506 -932 1163 -901
1727 17 301 165 579 404 760 131 99 319 177 483 200 103 14 274 3 383 -24z
m1117 -821 l0 -85 -89 0 -88 0 -7 69 c-3 38 -9 76 -12 85 -5 14 7 16 95 16
l101 0 0 -85z m-2555 -302 c20 -163 39 -276 61 -352 93 -327 259 -630 511
-931 197 -235 550 -550 617 -550 49 0 206 128 422 344 192 193 266 282 396
476 206 309 341 666 366 972 l7 83 88 3 87 3 0 -1026 0 -1025 -1877 2 -1878 3
-3 1010 c-1 556 0 1016 3 1023 3 9 133 12 599 12 l595 0 6 -47z m165 -2898 l0
-385 -1102 2 -1103 3 -40 22 c-47 25 -95 74 -121 123 -17 31 -19 65 -22 328
l-3 292 1195 0 1196 0 0 -385z m2388 93 c-3 -278 -4 -295 -25 -333 -25 -47
-74 -95 -123 -121 -33 -18 -78 -19 -882 -22 l-848 -2 0 385 0 385 941 0 940 0
-3 -292z"/>
<path d="M3431 4160 c-165 -45 -308 -161 -379 -312 -48 -99 -62 -161 -62 -270
0 -223 130 -430 330 -526 99 -47 163 -62 265 -62 160 0 303 58 414 168 316
313 199 842 -220 989 -102 36 -244 41 -348 13z m248 -161 c72 -16 150 -60 205
-115 230 -230 126 -624 -188 -709 -199 -54 -410 44 -499 232 -30 64 -32 75
-32 178 0 103 2 114 32 176 18 36 50 85 72 110 96 109 265 162 410 128z"/>
</g>
</svg>
