<?xml version="1.0" standalone="no"?>
<!DOCTYPE svg PUBLIC "-//W3C//DTD SVG 20010904//EN"
 "http://www.w3.org/TR/2001/REC-SVG-20010904/DTD/svg10.dtd">
<svg version="1.0" xmlns="http://www.w3.org/2000/svg"
 width="15.000000pt" height="15.000000pt" viewBox="0 0 512.000000 512.000000"
 preserveAspectRatio="xMidYMid meet">

<g transform="translate(0.000000,512.000000) scale(0.100000,-0.100000)"
fill="#000000" stroke="none">
<path d="M1481 5105 c-232 -51 -428 -236 -570 -536 -150 -318 -244 -751 -293
-1344 -18 -217 -18 -1113 0 -1330 69 -840 239 -1394 514 -1676 74 -76 133
-119 222 -160 119 -56 166 -60 620 -57 l411 3 67 33 c80 39 138 101 170 181
l23 56 0 580 c0 528 -2 584 -17 624 -27 65 -83 135 -136 170 -86 55 -134 61
-462 61 -372 0 -338 -19 -364 205 -55 475 -55 815 0 1290 18 154 19 160 47
185 20 19 36 20 317 20 334 0 380 6 467 66 55 38 113 114 135 179 10 32 13
160 13 615 0 572 0 575 -22 630 -41 101 -120 174 -223 204 -45 14 -114 16
-454 15 -301 0 -417 -4 -465 -14z m479 -840 l0 -685 -125 0 c-134 0 -167 -8
-228 -54 -62 -48 -85 -106 -106 -277 -62 -484 -62 -894 0 -1378 21 -171 44
-229 106 -277 61 -46 94 -54 228 -54 l125 0 0 -685 0 -685 -191 0 c-224 0
-297 13 -388 68 -250 152 -429 528 -525 1107 -64 384 -81 635 -81 1215 0 489
6 615 41 930 93 839 336 1351 683 1442 51 13 110 17 264 17 l197 1 0 -685z
m416 666 c23 -10 52 -34 65 -52 l24 -34 3 -568 c2 -494 0 -571 -13 -597 -39
-75 -110 -104 -245 -98 l-75 3 -3 683 -2 682 102 0 c79 0 113 -5 144 -19z
m-32 -3402 c24 -6 55 -22 69 -35 60 -55 58 -32 55 -651 l-3 -568 -24 -34 c-38
-53 -89 -71 -208 -71 l-103 0 0 678 c0 373 3 682 7 685 10 11 160 8 207 -4z"/>
<path d="M3535 4296 c-55 -25 -110 -81 -131 -132 -20 -48 -17 -151 5 -199 10
-22 53 -78 96 -125 139 -151 232 -288 319 -470 69 -145 107 -256 140 -401 135
-610 -33 -1225 -462 -1692 -91 -99 -111 -141 -112 -225 0 -75 16 -116 65 -170
76 -85 199 -108 302 -57 79 39 250 236 382 440 136 208 243 452 306 699 57
223 70 332 70 596 0 264 -13 373 -70 596 -102 396 -314 777 -591 1060 -52 52
-83 75 -119 87 -69 24 -140 22 -200 -7z m212 -216 c304 -324 494 -708 575
-1157 19 -109 22 -162 22 -363 0 -201 -3 -254 -22 -363 -81 -450 -279 -848
-578 -1159 -56 -59 -70 -68 -100 -68 -47 0 -84 37 -84 84 0 29 12 47 75 116
146 159 243 302 340 501 273 562 273 1213 0 1777 -96 199 -193 342 -340 502
-64 70 -75 87 -75 118 0 50 32 82 82 82 36 0 46 -7 105 -70z"/>
<path d="M3030 3771 c-83 -26 -151 -93 -174 -172 -20 -65 -20 -82 -1 -147 11
-37 33 -71 76 -119 221 -248 318 -504 306 -813 -11 -276 -97 -489 -283 -705
-111 -128 -130 -186 -98 -294 33 -111 144 -188 259 -179 81 7 129 34 204 114
204 218 342 489 408 804 28 132 25 489 -5 623 -72 324 -244 642 -444 822 -70
63 -170 89 -248 66z m165 -225 c177 -187 303 -434 362 -706 26 -121 26 -439 0
-560 -58 -268 -187 -520 -362 -706 -69 -73 -103 -82 -151 -40 -49 41 -40 79
40 170 217 249 326 535 326 856 0 321 -109 607 -326 856 -80 91 -89 129 -40
170 48 42 82 33 151 -40z"/>
</g>
</svg>
